SplineFontDB: 3.0
FontName: Sebastian-Met
FullName: Sebastian-Met
FamilyName: Sebastian
Weight: Standard

StartChar: e
Encoding: 101 101 0
Width: 456
Flags: W
HStem: 560 20G<232 257>
VStem: 232 24<164.792 384.996 518.587 580> 406 30<80.8092 260.004>
LayerCount: 2
Fore
SplineSet
232 580 m 0
 257 580 l 0
 257 527 277 487 314 443 c 0
 373.337 372.437 436 300 436 184 c 0
 436 131 424 87 410 44 c 0
 383 52 l 0
 394 91 406 126 406 184 c 0
 406 273 346 360 283 382 c 0
 277 384 272 385 267 385 c 0
 261 385 256 380 256 376 c 0
 256 99 l 0
 256 61 226 19 177 -5 c 0
 154 -17 129 -22 107 -22 c 0
 62 -22 20 2 20 50 c 0
 20 89 50 131 99 155 c 0
 123 166 147 172 169 172 c 0
 183 172 197 170 210 165 c 0
 221 160 232 172 232 179 c 0
 232 580 l 0
EndSplineSet
Validated: 1
EndChar

StartChar: s
Encoding: 115 115 1
Width: 456
Flags: W
HStem: 613 20G<232 257>
VStem: 232 24<164.792 308.996 427.137 478.918 590.345 633> 406 30<35.9753 206.314 276.593 396.788>
LayerCount: 2
Back
SplineSet
222 1144 m 4
 222 1164 225 1174 232 1174 c 4
 245 1174 250 1166 251 1154 c 4xd0
 254 1084 314 1033 335 1012 c 4
 385 962 449 904 449 798 c 4
 449 718 414 638 385 638 c 4
 377 638 373 641 373 652 c 4
 373 668 412 694 412 792 c 4
 412 889 333 958 284 958 c 4
 259 958 258 934 258 897 c 4
 258 895 258 892 258 889 c 1028xe8
EndSplineSet
Fore
SplineSet
257 467 m 0
 257 433 280 400 322 360 c 0
 350 333 375 306 394 276 c 0
 400 293 406 315 406 336 c 0
 406 387 378 437 318 466 c 0
 302 474 287 479 270 479 c 0
 262 479 257 476 257 467 c 0
377 -3 m 0
 388 23 406 71 406 132 c 0
 406 196 375 255 331 284 c 0
 308 299 287 309 267 309 c 0
 261 309 256 304 256 300 c 0
 256 99 l 0
 256 61 226 19 177 -5 c 0
 154 -17 129 -22 107 -22 c 0
 62 -22 20 2 20 50 c 0
 20 89 50 131 99 155 c 0
 123 166 147 172 169 172 c 0
 183 172 197 170 210 165 c 0
 221 160 232 172 232 179 c 0
 232 633 l 0
 257 633 l 0
 257 599 277 562 322 526 c 0
 376 483 436 418 436 335 c 0
 436 298 424 265 412 244 c 0
 427 211 436 174 436 131 c 0
 436 70 415 8 403 -13 c 0
 377 -3 l 0
EndSplineSet
Validated: 1
EndChar

StartChar: t
Encoding: 116 116 2
Width: 456
Flags: W
VStem: 232 25<164.466 308.996 423.902 478.991 586.987 644.991 752.987 799> 406 30<35.9753 206.314 276.593 397.09 449.49 562.788>
LayerCount: 2
Fore
SplineSet
377 -3 m 0
 388 23 406 71 406 132 c 0
 406 196 375 255 331 284 c 0
 308 299 287 309 267 309 c 0
 261 309 256 304 256 300 c 0
 256 99 l 0
 256 61 226 19 177 -5 c 0
 154 -17 129 -22 107 -22 c 0
 62 -22 20 2 20 50 c 0
 20 89 50 131 99 155 c 0
 123 166 147 172 169 172 c 0
 183 172 197 170 210 165 c 0
 221 160 232 172 232 179 c 0
 232 799 l 0
 257 799 l 0
 257 765 277 728 322 692 c 0
 376 649 436 584 436 501 c 0
 436 468 426 438 416 417 c 0
 428 392 436 365 436 335 c 0
 436 298 424 265 412 244 c 0
 427 211 436 174 436 131 c 0
 436 70 415 8 403 -13 c 0
 377 -3 l 0
257 467 m 0
 257 433 280 400 322 360 c 0
 350 333 375 306 394 276 c 0
 400 293 406 315 406 336 c 0
 406 387 378 437 318 466 c 0
 302 474 287 479 270 479 c 0
 262 479 257 476 257 467 c 0
257 633 m 0
 257 599 277 562 322 526 c 0
 348 505 375 480 397 449 c 0
 402 465 406 484 406 502 c 0
 406 553 378 603 318 632 c 0
 302 640 287 645 270 645 c 0
 262 645 257 642 257 633 c 0
EndSplineSet
Validated: 1
EndChar

StartChar: q
Encoding: 113 113 3
Width: 279
Flags: W
HStem: 510 20G<232 256>
VStem: 232 24<164.792 530>
LayerCount: 2
Back
SplineSet
222 192 m 6
 222 552 l 6
 222 570.475 225.5 577 240 577 c 4
 257.368 577 258 572.634 258 554 c 6
 258 115 l 6
 258 73 243.5 40.1667 214.5 16.5 c 4
 185.5 -7.16667 151 -19 111 -19 c 4
 83.6667 -19 60.8333 -13 42.5 -1 c 4
 24.1667 11 15 28.6667 15 52 c 4
 15 86.6667 30.6667 115.833 62 139.5 c 4
 93.3333 163.167 129 175 169 175 c 4
 171.667 175 176.833 174.5 184.5 173.5 c 4
 192.167 172.5 197.667 172 201 172 c 4
 215 172 222 178.667 222 192 c 6
EndSplineSet
Fore
SplineSet
232 530 m 0
 256 530 l 0
 256 99 l 0
 256 61 226 19 177 -5 c 0
 154 -17 129 -22 107 -22 c 0
 62 -22 20 2 20 50 c 0
 20 89 50 131 99 155 c 0
 123 166 147 172 169 172 c 0
 183 172 197 170 210 165 c 0
 221 160 232 172 232 179 c 0
 232 530 l 0
EndSplineSet
Validated: 1
EndChar

StartChar: r
Encoding: 114 114 4
Width: 0
VWidth: 0
LayerCount: 2
Back
SplineSet
279 640 m 4xc8
 298 610 323 588 335 576 c 4
 350 561 365 546 381 529 c 4
 388 521 397 513 403 513 c 4
 408 513 412 518 412 533 c 4
 412 534 412 536 412 538 c 4
 405 629 331 692 284 692 c 4
 272 692 262 687 262 678 c 4
 262 662 273 647 279 640 c 4xc8
282 460 m 4
 301 433 324 412 335 401 c 4
 350 386 367 371 384 352 c 4
 391 345 398 340 403 340 c 4
 408 340 412 345 412 362 c 4
 412 455 330 522 284 522 c 4
 268 522 261 513 261 504 c 4
 261 489 276 468 282 460 c 4
444 411 m 4
 447 396 449 380 449 362 c 4xd8
 449 311 441 300 441 284 c 4
 441 256 464 239 464 164 c 4
 464 84 428 4 400 4 c 4
 392 4 388 7 388 18 c 4
 388 34 427 60 427 158 c 4
 427 272 333 347 284 347 c 4
 259 347 258 323 258 286 c 6
 258 115 l 6
 258 73 244 40 214 16 c 4
 186 -7 151 -19 111 -19 c 4
 60 -19 15 3 15 52 c 4
 15 125 95 175 169 175 c 4
 173 175 196 172 201 172 c 4
 215 172 222 179 222 192 c 6xe4
 222 878 l 6
 222 898 225 908 232 908 c 4
 245 908 250 900 251 888 c 4xd0
 254 818 314 767 335 746 c 4
 385 696 449 638 449 532 c 4
 449 511 447 490 443 471 c 4
 440 460 439 452 439 444 c 4
 439 434 441 425 444 411 c 4
EndSplineSet
EndChar

StartChar: w
Encoding: 119 119 6
Width: 367
Flags: W
HStem: -32 215<121 245>
VStem: 20 327<-4 154>
LayerCount: 2
Fore
SplineSet
148 159 m 0
 82 149 97 102 111 68 c 0
 125 33 l 0
 139 -1 167 -15 217 -8 c 0
 284 0 269 49 255 82 c 0
 240 117 l 0
 225 152 198 166 148 159 c 0
20 74 m 0
 21 154 121 183 187 183 c 0
 249 183 347 155 347 76 c 0
 346 -4 245 -32 179 -32 c 0
 117 -32 20 -5 20 74 c 0
EndSplineSet
Validated: 33
EndChar

StartChar: h
Encoding: 104 104 7
Width: 282
Flags: W
HStem: -22 34<46.2077 124.476> 146 34<157.524 236.754> 510 20G<238 262>
VStem: 20 24<16.4246 61.0872> 238 24<96.9414 142.309 175.362 530>
LayerCount: 2
Back
SplineSet
222 192 m 4
 222 540 l 4
 222 552 l 4
 222 562 223 568.667 225 572 c 4
 227 575.333 232 577 240 577 c 4
 248 577 253 575.667 255 573 c 4
 257 570.333 258 564 258 554 c 4
 258 540 l 4
 258 115 l 4
 258 73 243.5 40.1667 214.5 16.5 c 4
 185.5 -7.16667 151 -19 111 -19 c 4
 83.6667 -19 60.8333 -13 42.5 -1 c 4
 24.1667 11 15 28.6667 15 52 c 4
 15 86.6667 30.6667 115.833 62 139.5 c 4
 93.3333 163.167 129 175 169 175 c 4
 171.667 175 176.833 174.5 184.5 173.5 c 4
 192.167 172.5 197.667 172 201 172 c 4
 215 172 222 178.667 222 192 c 4
226 103 m 4
 226 111.667 223.167 118.667 217.5 124 c 4
 211.833 129.333 204.333 132 195 132 c 4
 179.667 132 154.333 124.667 119 110 c 4
 73.6667 90.6667 50 72 48 54 c 4
 47.3333 52 47 49.6667 47 47 c 4
 47 39 50 32.5 56 27.5 c 4
 62 22.5 70 20 80 20 c 4
 93.3333 20 120.333 29 161 47 c 4
 201.667 65 223 81.6667 225 97 c 4
 225.667 98.3333 226 100.333 226 103 c 4
EndSplineSet
Fore
SplineSet
238 121 m 0
 238 137 226 146 211 146 c 0
 192 146 164 135 123 111 c 0
 67 78 44 56 44 37 c 0
 44 21 56 12 71 12 c 0
 90 12 118 23 159 47 c 0
 215 80 238 102 238 121 c 0
238 530 m 0
 262 530 l 0
 262 113 l 0
 262 71 229 21 189 -3 c 0
 167 -16 139 -22 112 -22 c 0
 65 -22 20 -4 20 45 c 0
 20 87 53 137 93 161 c 0
 115 174 143 180 170 180 c 0
 185 180 200 178 214 174 c 0
 227 170 238 184 238 194 c 0
 238 530 l 0
EndSplineSet
Validated: 1
EndChar

StartChar: p
Encoding: 112 112 8
Width: 171
Flags: W
HStem: 44 102<59.1171 141.544>
VStem: 50 101<53.1171 136.485>
LayerCount: 2
Back
SplineSet
93 145 m 4
 103 145 112 140.833 120 132.5 c 4
 128 124.167 132 114.333 132 103 c 4
 132 91 128.333 81.5 121 74.5 c 4
 113.667 67.5 104 64 92 64 c 4
 81.3333 64 72.1667 68 64.5 76 c 4
 56.8333 84 53 93 53 103 c 4
 53 116.333 56.6667 126.667 64 134 c 4
 71.3333 141.333 81 145 93 145 c 4
EndSplineSet
Fore
SplineSet
50 94 m 0
 50 123 72 146 100 146 c 0
 128 146 151 123 151 94 c 0
 151 66 128 44 100 44 c 0
 72 44 50 66 50 94 c 0
EndSplineSet
Validated: 1
EndChar

StartChar: zero
Encoding: 48 48 9
Width: 220
Flags: W
HStem: -3 16<89.4081 126.956> 237 16<89.4081 126.956>
VStem: 20 50<35.2417 214.45> 150 50<39.7148 210.285>
LayerCount: 2
Fore
SplineSet
20 125 m 0
 20 205 56 253 108 253 c 0
 160 253 200 205 200 125 c 0
 200 45 160 -3 108 -3 c 0
 56 -3 20 45 20 125 c 0
108 237 m 0
 76 237 70 189 70 134 c 0
 70 114 l 0
 70 59 76 13 108 13 c 0
 140 13 150 59 150 114 c 0
 150 134 l 0
 150 189 140 237 108 237 c 0
EndSplineSet
Validated: 1
EndChar

StartChar: one
Encoding: 49 49 10
Width: 204
Flags: W
HStem: 0 18<39 80.7335 140.488 184> 230 20G<81.4615 134>
VStem: 88 46<19.1304 194.23>
LayerCount: 2
Fore
SplineSet
71 194 m 0
 29 160 l 0
 19 172 l 0
 103 250 l 0
 134 250 l 0
 134 47 l 0
 134 24 149 18 165 18 c 0
 184 18 l 0
 184 0 l 0
 39 0 l 0
 39 18 l 0
 57 18 l 0
 72 18 88 26 88 46 c 0
 88 190 l 0
 88 198 76 199 71 194 c 0
EndSplineSet
Validated: 1
EndChar

StartChar: two
Encoding: 50 50 11
Width: 208
Flags: W
HStem: -4 40<71.7228 160.724> 236 17<64.4758 123.17>
VStem: 20 29<172.5 221.86> 142 46<139.653 229.208>
LayerCount: 2
Fore
SplineSet
48 149 m 0
 33 149 20 161 20 184 c 0
 20 216 50 253 106 253 c 0
 153 253 188 226 188 187 c 0
 188 147 158 129 127 111 c 0
 102 97 80 78 67 58 c 0
 63 53 68 43 73 42 c 0
 86 39 101 36 124 36 c 0
 148 36 161 50 170 74 c 0
 185 74 l 0
 187 67 188 60 188 54 c 0
 188 22 166 -4 134 -4 c 0
 93 -4 79 18 59 18 c 0
 47 18 39 9 36 0 c 0
 20 0 l 0
 30 105 142 120 142 187 c 0
 142 217 123 236 96 236 c 0
 71 236 49 222 49 210 c 0
 49 199 74 198 74 176 c 0
 74 163 65 149 48 149 c 0
EndSplineSet
Validated: 1
EndChar

StartChar: three
Encoding: 51 51 12
Width: 212
Flags: W
HStem: -3 17<65.823 122.716> 118 16<64 110.703> 236 17<68.6226 127.445>
VStem: 20 45<14.2922 63.2889> 33 31<184.157 232.063> 145 47<22.2998 106.891 154.544 228.887>
LayerCount: 2
Fore
SplineSet
145 67 m 0xf4
 145 99 127 118 64 118 c 1
 64 134 l 1
 117 134 142 153 142 190 c 0
 142 218 129 236 100 236 c 0
 88 236 64 231 64 220 c 0
 64 212 79 212 79 194 c 0
 79 183 70 172 57 172 c 0
 40 172 33 187 33 202 c 0xec
 33 233 74 253 106 253 c 0
 154 253 186 224 186 192 c 0
 186 168 170 149 147 137 c 0
 141 134 141 123 146 121 c 0
 175 109 192 90 192 64 c 0
 192 27 161 -3 97 -3 c 0
 57 -3 20 18 20 46 c 0
 20 68 35 77 49 77 c 0
 63 77 75 65 75 51 c 0
 75 38 65 32 65 24 c 0
 65 17 79 14 91 14 c 0
 121 14 145 29 145 67 c 0xf4
EndSplineSet
Validated: 1
EndChar

StartChar: four
Encoding: 52 52 13
Width: 234
Flags: W
HStem: 0 18<86 114.658 174.127 204> 79 18<54.7568 122 168 214> 230 20G<84 162>
VStem: 122 46<19.1903 79 97 134>
LayerCount: 2
Fore
SplineSet
168 97 m 0
 214 97 l 0
 214 79 l 0
 168 79 l 0
 168 47 l 0
 168 24 182 18 198 18 c 0
 204 18 l 0
 204 0 l 0
 86 0 l 0
 86 18 l 0
 90 18 l 0
 106 18 122 26 122 46 c 0
 122 79 l 0
 20 79 l 0
 20 97 l 0
 57 153 76 188 92 250 c 0
 162 250 l 0
 134 194 92 167 56 114 c 0
 52 107 57 97 62 97 c 0
 122 97 l 0
 122 134 l 0
 168 184 l 0
 168 97 l 0
EndSplineSet
Validated: 1
EndChar

StartChar: five
Encoding: 53 53 14
Width: 198
Flags: W
HStem: -3 17<64.3412 107.92> 129 18<63.9905 111.583> 208 42<51 126.162>
VStem: 20 50<14.5805 67.6679> 33 18<140.105 207.226> 128 50<23.8539 123.932>
LayerCount: 2
Fore
SplineSet
80 14 m 0xf4
 115 14 128 39 128 78 c 0
 128 111 110 129 88 129 c 0
 70 129 53 118 44 104 c 0
 33 109 l 0
 33 250 l 0
 164 250 l 0
 155 217 110 204 64 208 c 0
 57 208 51 201 51 198 c 0
 51 150 l 0xec
 51 145 60 137 67 140 c 0
 77 144 89 147 103 147 c 0
 138 147 178 127 178 76 c 0
 178 26 132 -3 92 -3 c 0
 50 -3 20 14 20 42 c 0
 20 55 29 68 46 68 c 0
 59 68 70 59 70 45 c 0
 70 34 64 30 64 22 c 0
 64 16 70 14 80 14 c 0xf4
EndSplineSet
Validated: 33
EndChar

StartChar: six
Encoding: 54 54 15
Width: 204
Flags: W
HStem: -3 16<84.1887 125.41> 128 18<87.8557 132.393> 237 16<98.0894 122.399>
VStem: 20 47<28.8953 205.181> 118 55<183.743 236.398> 141 43<21.4045 127.144>
LayerCount: 2
Fore
SplineSet
79 133 m 0xf8
 87 139 103 146 120 146 c 0
 164 146 184 112 184 78 c 0xf4
 184 32 153 -3 103 -3 c 0
 42 -3 20 54 20 116 c 0
 20 202 64 253 118 253 c 0
 145 253 173 238 173 212 c 0
 173 196 160 183 145 183 c 0
 130 183 118 193 118 208 c 0
 118 221 123 224 123 230 c 0
 123 235 120 237 116 237 c 0
 89 237 66 190 64 139 c 0
 64 133 73 128 79 133 c 0xf8
112 128 m 0
 89 128 67 106 67 69 c 0
 67 41 79 13 103 13 c 0
 131 13 141 34 141 77 c 0
 141 105 139 128 112 128 c 0
EndSplineSet
Validated: 1
EndChar

StartChar: seven
Encoding: 55 55 16
Width: 190
Flags: W
HStem: 0 21G<43 111> 203 37<89.9288 140.935> 210 45<36.2994 136.194> 210 28<40.125 75.4662>
VStem: 15 18<161 198.704> 43 58<0 43.7427>
LayerCount: 2
Fore
SplineSet
33 250 m 0xac
 33 250 39 238 48 238 c 0x9c
 61 238 71 255 89 255 c 0xac
 109 255 117 240 132 240 c 0
 142 240 153 245 156 250 c 0
 178 250 l 0
 162 120 121 106 101 0 c 0
 43 0 l 0
 81 92 118 115 141 190 c 0
 143 197 135 203 129 203 c 0xcc
 108 205 87 210 72 210 c 0
 39 210 33 190 33 161 c 0
 15 161 l 0
 15 250 l 0
 33 250 l 0xac
EndSplineSet
Validated: 1
EndChar

StartChar: eight
Encoding: 56 56 17
Width: 222
Flags: W
HStem: -3 16<82.6641 141.591> 237 16<89.8094 143.882>
VStem: 25 31<29.4692 99.3003> 36 39<171.994 230.066> 161 41<25.1141 88.9531> 162 28<160.712 225.852>
LayerCount: 2
Fore
SplineSet
75 205 m 0xd4
 75 179 103 164 133 148 c 0
 151 159 162 176 162 194 c 0
 162 218 145 237 118 237 c 0
 91 237 75 221 75 205 c 0xd4
161 51 m 0xe8
 161 83 128 99 96 117 c 0
 71 106 56 90 56 64 c 0
 56 40 78 13 112 13 c 0
 140 13 161 31 161 51 c 0xe8
66 119 m 0
 73 123 70 133 65 137 c 0
 48 150 36 166 36 189 c 0
 36 225 74 253 118 253 c 0
 163 253 190 228 190 196 c 0xd4
 190 175 179 159 164 147 c 0
 156 141 160 133 163 130 c 0
 185 115 202 97 202 70 c 0
 202 30 158 -3 112 -3 c 0
 60 -3 25 27 25 60 c 0
 25 86 40 105 66 119 c 0
EndSplineSet
Validated: 1
EndChar

StartChar: nine
Encoding: 57 57 18
Width: 204
Flags: W
HStem: -3 18<64.0022 108.091> 104 18<72.6783 117.535> 237 16<78.5904 119.811>
VStem: 20 43<123.56 228.595> 23 55<15.3529 65.2566> 140 44<42.727 221.105>
LayerCount: 2
Fore
SplineSet
140 109 m 0xec
 140 116 131 121 124 116 c 0
 114 109 101 104 87 104 c 0
 42 104 20 137 20 172 c 0xf4
 20 218 51 253 101 253 c 0
 162 253 184 196 184 134 c 0
 184 48 144 -3 78 -3 c 0
 51 -3 23 11 23 37 c 0
 23 53 36 66 51 66 c 0
 66 66 78 56 78 41 c 0
 78 33 77 29 77 24 c 0
 77 17 83 15 89 15 c 0
 118 15 140 67 140 109 c 0xec
95 122 m 0
 116 122 137 144 137 181 c 0
 137 209 125 237 101 237 c 0
 73 237 63 216 63 173 c 0
 63 147 65 122 95 122 c 0
EndSplineSet
Validated: 1
EndChar

StartChar: equal
Encoding: 61 61 19
Width: 515
Flags: W
HStem: 55 29<140 375> 148 29<140 375>
VStem: 140 235<55 84 148 177>
LayerCount: 2
Fore
SplineSet
140 84 m 0
 375 84 l 0
 375 55 l 0
 140 55 l 0
 140 84 l 0
140 177 m 0
 375 177 l 0
 375 148 l 0
 140 148 l 0
 140 177 l 0
EndSplineSet
Validated: 1
EndChar

StartChar: colon
Encoding: 58 58 20
Width: 156
Flags: W
HStem: 152 76<43.745 112.255>
VStem: 40 76<155.745 224.255>
LayerCount: 2
Back
SplineSet
79 228 m 4
 88.3333 228 96.6667 224.333 104 217 c 4
 111.333 209.667 115 201 115 191 c 4
 115 181 111.167 171.833 103.5 163.5 c 4
 95.8333 155.167 86.6667 151 76 151 c 4
 67.3333 151 59.1667 154.667 51.5 162 c 4
 43.8333 169.333 40 178.333 40 189 c 4
 40 199.667 43.8333 208.833 51.5 216.5 c 4
 59.1667 224.167 68.3333 228 79 228 c 4
78 73 m 4
 87.3333 73 95.8333 69.1667 103.5 61.5 c 4
 111.167 53.8333 115 44.6667 115 34 c 4
 115 22.6667 111.5 13.6667 104.5 7 c 4
 97.5 0.333333 88.3333 -3 77 -3 c 4
 67 -3 58.3333 0.833333 51 8.5 c 4
 43.6667 16.1667 40 24.6667 40 34 c 4
 40 46.6667 43.5 56.3333 50.5 63 c 4
 57.5 69.6667 66.6667 73 78 73 c 4
EndSplineSet
Fore
Refer: 21 46 S 1 0 0 1 0 155 2
Validated: 1
EndChar

StartChar: period
Encoding: 46 46 21
Width: 156
Flags: W
HStem: -3 76<43.745 112.255>
VStem: 40 76<0.744965 69.255>
LayerCount: 2
Fore
SplineSet
40 35 m 4
 40 56 57 73 78 73 c 4
 99 73 116 56 116 35 c 4
 116 14 99 -3 78 -3 c 4
 57 -3 40 14 40 35 c 4
EndSplineSet
Validated: 1
EndChar

StartChar: parenright
Encoding: 41 41 22
Width: 181
Flags: W
HStem: 287 20G<85 120>
VStem: 150 31<17.6152 196.385>
LayerCount: 2
Fore
SplineSet
181 107 m 4
 182 20 141 -47 99 -93 c 5
 85 -79 l 5
 118 -37 151 24 150 107 c 4
 150 190 118 251 85 293 c 5
 99 307 l 5
 141 261 181 194 181 107 c 4
EndSplineSet
Validated: 33
EndChar

StartChar: parenleft
Encoding: 40 40 23
Width: 181
Flags: W
HStem: 287 20G<61 96>
VStem: 0 31<17.6152 196.385>
LayerCount: 2
Fore
SplineSet
0 107 m 0
 -1 194 40 261 82 307 c 1
 96 293 l 1
 63 251 30 190 31 107 c 0
 31 24 63 -37 96 -79 c 1
 82 -93 l 1
 40 -47 0 20 0 107 c 0
EndSplineSet
Validated: 33
EndChar

StartChar: plus
Encoding: 43 43 24
Width: 398
Flags: W
HStem: 0 21G<183 214> 103 31<80 317> 217 20G<183 214>
VStem: 183 31<0 237>
LayerCount: 2
Fore
SplineSet
214 237 m 0
 214 0 l 0
 183 0 l 0
 183 237 l 0
 214 237 l 0
80 134 m 0
 317 134 l 0
 317 103 l 0
 80 103 l 0
 80 134 l 0
EndSplineSet
Validated: 5
EndChar

StartChar: hyphen
Encoding: 45 45 25
Width: 397
Flags: W
HStem: 103 31<80 317>
VStem: 80 237<103 134>
LayerCount: 2
Fore
SplineSet
80 134 m 0
 317 134 l 0
 317 103 l 0
 80 103 l 0
 80 134 l 0
EndSplineSet
Validated: 1
EndChar

StartChar: bracketleft
Encoding: 91 91 26
Width: 155
VWidth: 0
Flags: W
HStem: -132 30<30 135> 608 30<30 135>
VStem: 0 30<-102 608>
LayerCount: 2
Fore
SplineSet
30 597 m 2
 30 -90 l 2
 30 -96 37 -102 41 -102 c 2
 135 -102 l 1
 135 -132 l 1
 0 -132 l 1
 0 638 l 1
 135 638 l 1
 135 608 l 1
 41 608 l 2
 36 608 30 601 30 597 c 2
EndSplineSet
Validated: 1
EndChar

StartChar: bracketright
Encoding: 93 93 27
Width: 155
VWidth: 0
Flags: W
HStem: -132 30<20 125> 608 30<20 125>
VStem: 125 30<-101.996 607.995>
LayerCount: 2
Fore
SplineSet
125 597 m 2
 125 601 119 608 114 608 c 2
 20 608 l 1
 20 638 l 1
 155 638 l 1
 155 -132 l 1
 20 -132 l 1
 20 -102 l 1
 114 -102 l 2
 118 -102 125 -96 125 -90 c 2
 125 597 l 2
EndSplineSet
Validated: 1
EndChar

StartChar: c
Encoding: 99 99 28
Width: 276
Flags: W
HStem: 560 20G<232 256>
VStem: 232 24<164.792 580>
LayerCount: 2
Back
SplineSet
695 35 m 4x39c0
 695 56 712 73 733 73 c 4
 754 73 771 56 771 35 c 4
 771 14 754 -3 733 -3 c 4
 712 -3 695 14 695 35 c 4x39c0
449 -6 m 4x7bc0
 428 -6 411 -1 398 10 c 4
 385 21 379 36 379 55 c 4x7dc0
 379 78 390 97 413 114 c 4
 434 128 471 142 522 156 c 4
 535 159 541 169 541 186 c 4
 541 189 l 4
 541 227 526 246 495 246 c 4
 468 246 454 240 454 228 c 4
 454 225 455 221 458 216 c 4
 461 211 463 205 463 200 c 4
 463 189 460 180 453 174 c 4
 446 168 438 165 427 165 c 4
 416 165 408 169 401 176 c 4
 394 183 391 192 391 203 c 4
 391 226 402 244 422 255 c 4
 442 266 467 272 497 272 c 4
 531 272 556 265 570 252 c 4
 584 239 591 215 591 181 c 4
 591 56 l 4
 591 47 592 40 595 36 c 4
 598 32 603 30 610 30 c 4
 629 30 639 51 642 92 c 4
 642 99 646 103 653 103 c 4
 660 103 663 99 663 91 c 4
 663 26 638 -6 587 -6 c 4
 572 -6 561 0 553 12 c 4
 548 20 543 24 538 24 c 4
 535 24 l 4
 530 24 524 21 516 15 c 4
 499 1 476 -6 449 -6 c 4x7bc0
474 28 m 4
 493 28 510 35 522 50 c 4
 534 65 540 84 540 105 c 4
 540 108 l 4
 540 119 532 125 516 125 c 4
 501 125 482 117 460 102 c 4
 445 91 438 78 438 62 c 4
 438 39 450 28 474 28 c 4
298 235 m 4
 298 244 290 249 275 249 c 4
 248 249 230 240 220 220 c 4
 210 200 205 172 205 137 c 4
 205 102 210 75 220 56 c 4
 230 37 247 27 274 27 c 4x79c0
 299 27 322 40 341 66 c 4
 343 69 346 70 350 70 c 4xb9c0
 356 70 359 67 359 60 c 4
 359 57 358 53 356 50 c 4
 334 13 301 -6 257 -6 c 4
 221 -6 193 6 172 32 c 4
 151 58 140 91 140 131 c 4
 140 171 152 204 177 232 c 4
 202 260 233 274 272 274 c 4
 297 274 317 268 332 256 c 4
 347 244 355 226 355 203 c 4
 355 189 352 178 345 169 c 4
 338 160 329 156 316 156 c 4
 305 156 296 160 289 166 c 4
 282 172 278 180 278 190 c 4
 278 203 282 213 289 220 c 4
 295 225 298 230 298 235 c 4
EndSplineSet
Fore
SplineSet
63 510 m 4
 243 510 l 4
 243 420 l 4
 63 420 l 4
 63 510 l 4
63 660 m 0
 243 660 l 0
 243 570 l 0
 63 570 l 0
 63 660 l 0
232 660 m 1
 256 660 l 1
 256 99 l 2
 256 61 226 19 177 -5 c 0
 154 -17 129 -22 107 -22 c 0
 62 -22 20 2 20 50 c 0
 20 89 50 131 99 155 c 0
 123 166 147 172 169 172 c 0
 183 172 197 170 210 165 c 0
 221 160 232 172 232 179 c 2
 232 660 l 1
EndSplineSet
Validated: 5
EndChar

StartChar: d
Encoding: 100 100 29
Width: 357
Flags: W
HStem: 0 58<46.0102 310.992> 122 57<46.0393 310.968>
VStem: 15 31<-82.9967 -0.573486 58.4928 121.169 179.605 262.996> 311 31<-82.9965 -0.637756 58.4803 121.215 179.548 262.998>
LayerCount: 2
Fore
SplineSet
283 58 m 2
 309 58 311 61 311 80 c 2
 311 99 l 2
 311 116 305 122 286 122 c 10
 72 122 l 2
 49 122 46 114 46 100 c 2
 46 76 l 2
 46 59 60 58 69 58 c 2
 283 58 l 2
73 0 m 2
 47 0 46 -5 46 -22 c 2
 46 -69 l 2
 46 -82 38 -83 30 -83 c 3
 20 -83 15 -81 15 -67 c 2
 15 240 l 2
 15 257 16 263 31 263 c 3
 44 263 46 257 46 243 c 2
 46 203 l 2
 46 180 58 179 72 179 c 10
 287 179 l 18
 300 179 311 181 311 202 c 2
 311 244 l 2
 311 263 320 263 326 263 c 3
 339 263 342 261 342 248 c 10
 342 -61 l 2
 342 -82 339 -83 327 -83 c 3
 315 -83 311 -80 311 -62 c 2
 311 -21 l 2
 311 -1 300 0 283 0 c 10
 73 0 l 2
EndSplineSet
Validated: 1
EndChar

StartChar: m
Encoding: 109 109 30
Width: 0
Flags: W
HStem: 270 90<-30 150> 420 90<-30 150> 570 90<-30 150>
VStem: -30 180<270 360 420 510 570 660>
CounterMasks: 1 e0
LayerCount: 2
Back
SplineSet
52 650 m 5
 52 750 l 5
 428 750 l 5
 428 650 l 5
 52 650 l 5
222 192 m 6
 222 725 l 6
 222 743.475 225.5 750 240 750 c 4
 257.368 750 258 745.635 258 727 c 6
 258 115 l 6
 258 73 243.5 40.1667 214.5 16.5 c 4
 185.5 -7.16667 151 -19 111 -19 c 4
 83.6667 -19 60.8333 -13 42.5 -1 c 4
 24.1667 11 15 28.6667 15 52 c 4
 15 86.6667 30.6667 115.833 62 139.5 c 4
 93.3333 163.167 129 175 169 175 c 4
 175.167 175 192.667 172 201 172 c 4
 215 172 222 178.667 222 192 c 6
EndSplineSet
Fore
SplineSet
-30 360 m 4
 150 360 l 4
 150 270 l 4
 -30 270 l 4
 -30 360 l 4
-30 510 m 0
 150 510 l 0
 150 420 l 0
 -30 420 l 0
 -30 510 l 0
-30 660 m 0
 150 660 l 0
 150 570 l 0
 -30 570 l 0
 -30 660 l 0
EndSplineSet
Validated: 1
EndChar

StartChar: n
Encoding: 110 110 31
Width: 0
Flags: W
HStem: 420 90<-30 150> 570 90<-30 150>
VStem: -30 180<420 510 570 660>
LayerCount: 2
Back
SplineSet
52 750 m 5xf0
 238 750 l 5
 238 650 l 5xe4
 52 650 l 5
 52 750 l 5xf0
222 192 m 6xe8
 222 725 l 6xe8
 222 743.475 225.5 750 240 750 c 4
 257.368 750 258 745.635 258 727 c 6xf0
 258 115 l 6
 258 73 243.5 40.1667 214.5 16.5 c 4
 185.5 -7.16667 151 -19 111 -19 c 4
 83.6667 -19 60.8333 -13 42.5 -1 c 4
 24.1667 11 15 28.6667 15 52 c 4
 15 86.6667 30.6667 115.833 62 139.5 c 4
 93.3333 163.167 129 175 169 175 c 4
 175.167 175 192.667 172 201 172 c 4
 215 172 222 178.667 222 192 c 6xe8
EndSplineSet
Fore
SplineSet
-30 510 m 4
 150 510 l 4
 150 420 l 4
 -30 420 l 4
 -30 510 l 4
-30 660 m 0
 150 660 l 0
 150 570 l 0
 -30 570 l 0
 -30 660 l 0
EndSplineSet
Validated: 1
EndChar

StartChar: b
Encoding: 98 98 32
Width: 0
Flags: W
HStem: 570 90<-30 150>
VStem: -30 180<570 660>
LayerCount: 2
Fore
SplineSet
-30 660 m 0
 150 660 l 0
 150 570 l 0
 -30 570 l 0
 -30 660 l 0
EndSplineSet
Validated: 1
EndChar

StartChar: x
Encoding: 120 120 33
Width: 276
Flags: W
HStem: 560 20G<232 256>
VStem: 232 24<164.792 580>
LayerCount: 2
Back
SplineSet
242 590 m 5xf2
 428 590 l 5
 428 490 l 5xf8
 242 490 l 5
 242 590 l 5xf2
242 750 m 5xf2
 428 750 l 5
 428 650 l 5xf8
 242 650 l 5
 242 750 l 5xf2
222 192 m 6xf4
 222 725 l 6xf8
 222 743.475 225.5 750 240 750 c 4
 257.368 750 258 745.635 258 727 c 6xf4
 258 115 l 6xf2
 258 73 243.5 40.1667 214.5 16.5 c 4
 185.5 -7.16667 151 -19 111 -19 c 4
 83.6667 -19 60.8333 -13 42.5 -1 c 4
 24.1667 11 15 28.6667 15 52 c 4
 15 86.6667 30.6667 115.833 62 139.5 c 4
 93.3333 163.167 129 175 169 175 c 4
 175.167 175 192.667 172 201 172 c 4
 215 172 222 178.667 222 192 c 6xf4
EndSplineSet
Fore
SplineSet
63 660 m 4
 243 660 l 0
 243 570 l 0
 63 570 l 0
 63 660 l 4
232 660 m 1
 256 660 l 1
 256 99 l 2
 256 61 226 19 177 -5 c 0
 154 -17 129 -22 107 -22 c 0
 62 -22 20 2 20 50 c 0
 20 89 50 131 99 155 c 0
 123 166 147 172 169 172 c 0
 183 172 197 170 210 165 c 0
 221 160 232 172 232 179 c 2
 232 660 l 1
EndSplineSet
Validated: 5
EndChar

StartChar: y
Encoding: 121 121 34
Width: 276
Flags: W
HStem: 560 20G<232 256>
VStem: 232 24<164.792 580>
LayerCount: 2
Back
SplineSet
52 490 m 5
 52 590 l 5
 428 590 l 5
 428 490 l 5
 52 490 l 5
52 650 m 5
 52 750 l 5
 428 750 l 5
 428 650 l 5
 52 650 l 5
222 192 m 6xf4
 222 725 l 6
 222 743.475 225.5 750 240 750 c 4
 257.368 750 258 745.635 258 727 c 6
 258 115 l 6
 258 73 243.5 40.1667 214.5 16.5 c 4
 185.5 -7.16667 151 -19 111 -19 c 4
 83.6667 -19 60.8333 -13 42.5 -1 c 4
 24.1667 11 15 28.6667 15 52 c 4
 15 86.6667 30.6667 115.833 62 139.5 c 4
 93.3333 163.167 129 175 169 175 c 4
 175.167 175 192.667 172 201 172 c 4
 215 172 222 178.667 222 192 c 6xf4
EndSplineSet
Fore
SplineSet
232 660 m 1
 256 660 l 1
 256 99 l 2
 256 61 226 19 177 -5 c 0
 154 -17 129 -22 107 -22 c 0
 62 -22 20 2 20 50 c 0
 20 89 50 131 99 155 c 0
 123 166 147 172 169 172 c 0
 183 172 197 170 210 165 c 0
 221 160 232 172 232 179 c 2
 232 660 l 1
EndSplineSet
Validated: 1
EndChar

StartChar: v
Encoding: 118 118 35
Width: 276
Flags: W
HStem: 560 20G<232 256>
VStem: 232 24<164.792 580>
CounterMasks: 1 e0
LayerCount: 2
Fore
SplineSet
63 360 m 0
 243 360 l 0
 243 270 l 0
 63 270 l 0
 63 360 l 0
63 510 m 0
 243 510 l 0
 243 420 l 0
 63 420 l 0
 63 510 l 0
63 660 m 0
 243 660 l 0
 243 570 l 0
 63 570 l 0
 63 660 l 0
232 660 m 1
 256 660 l 1
 256 99 l 2
 256 61 226 19 177 -5 c 0
 154 -17 129 -22 107 -22 c 0
 62 -22 20 2 20 50 c 0
 20 89 50 131 99 155 c 0
 123 166 147 172 169 172 c 0
 183 172 197 170 210 165 c 0
 221 160 232 172 232 179 c 2
 232 660 l 1
EndSplineSet
Validated: 5
EndChar

StartChar: udieresis
Encoding: 252 252 36
Width: 50
Flags: W
HStem: 490 100<-30 150> 650 100<-30 150>
VStem: -30 180<490 590 650 750>
LayerCount: 2
Fore
SplineSet
-30 590 m 1
 150 590 l 5
 150 490 l 5
 -30 490 l 1
 -30 590 l 1
-30 750 m 1
 150 750 l 5
 150 650 l 5
 -30 650 l 1
 -30 750 l 1
EndSplineSet
Validated: 1
EndChar

StartChar: odieresis
Encoding: 246 246 37
Width: 273
Flags: W
HStem: -19 194<83.2748 194.679> 330 100<258.408 427.853> 490 100<258.705 426.748> 650 100<52.6691 221.61 258.334 426.804>
VStem: 222 206<330.156 429.633 491.139 588.877> 222 36<172.122 329.351 430.732 488.289 591.507 648.976>
LayerCount: 2
Fore
SplineSet
222 617 m 2xf4
 222 644.667 217.667 650 190 650 c 2
 87 650 l 2
 60.6667 650 52 659 52 681 c 2
 52 720 l 2
 52 740 60.6667 750 87 750 c 2
 396 750 l 2
 416.5 750 428 742 428 717 c 2
 428 681 l 2xf8
 428 665.5 419.5 650 396 650 c 2
 289 650 l 2
 264.667 650 258 643.667 258 620 c 0xf4
 258 602.73 264.5 590 287.5 590 c 2
 394 590 l 2
 416 590 428 581.5 428 556 c 2
 428 520 l 2xf8
 428 499 417.5 490 394 490 c 2
 289 490 l 2
 267.5 490 258 479.5 258 460 c 3xf4
 258 439.994 263 430 284 430 c 2
 399.5 430 l 2
 417 430 428 424 428 408 c 2
 428 355.5 l 2xf8
 428 338.5 420 330 402.5 330 c 2
 285.5 330 l 2
 266 330 258 324.5 258 303 c 2
 258 115 l 2
 258 73 243.5 40.1667 214.5 16.5 c 0
 185.5 -7.16667 151 -19 111 -19 c 0
 83.6667 -19 60.8333 -13 42.5 -1 c 0
 24.1667 11 15 28.6667 15 52 c 0
 15 86.6667 30.6667 115.833 62 139.5 c 0
 93.3333 163.167 129 175 169 175 c 0
 175.167 175 192.667 172 201 172 c 0
 215 172 222 178.667 222 192 c 2
 222 617 l 2xf4
EndSplineSet
Validated: 1
EndChar

StartChar: adieresis
Encoding: 228 228 38
Width: 273
Flags: W
HStem: -19 194<83.2748 194.679> 330 100<52.5029 221.644> 490 100<53.1206 221.346> 650 100<52.6691 221.61 258.334 426.804>
VStem: 52 206<330.208 429.888 491.672 589.395> 222 36<172.122 329.316 431.294 489.039 591.36 648.976>
LayerCount: 2
Fore
SplineSet
52 525 m 2xf8
 52 561 l 2xf8
 52 582 60.5 590 83 590 c 2
 188 590 l 2
 212 590 222 595.494 222 617 c 0xf4
 222 644.667 217.667 650 190 650 c 2
 87 650 l 2
 60.6667 650 52 659 52 681 c 2
 52 720 l 2xf8
 52 740 60.6667 750 87 750 c 2
 396 750 l 2
 416.5 750 428 742 428 717 c 2
 428 681 l 2
 428 665.5 419.5 650 396 650 c 2
 289 650 l 2
 264.667 650 258 643.667 258 620 c 2
 258 115 l 2
 258 73 243.5 40.1667 214.5 16.5 c 0
 185.5 -7.16667 151 -19 111 -19 c 0
 83.6667 -19 60.8333 -13 42.5 -1 c 0
 24.1667 11 15 28.6667 15 52 c 0
 15 86.6667 30.6667 115.833 62 139.5 c 0
 93.3333 163.167 129 175 169 175 c 0
 175.167 175 192.667 172 201 172 c 0
 215 172 222 178.667 222 192 c 2
 222 304.5 l 2xf4
 222 320.5 216.5 330 195.5 330 c 2
 77 330 l 2
 60.5 330 52 341.5 52 358.5 c 2
 52 408 l 2xf8
 52 424 62 430 77 430 c 2
 194 430 l 2
 212 430 222 438.973 222 457.5 c 3xf4
 222 488.603 211.088 490 187 490 c 2
 92 490 l 2
 62 490 52 498 52 525 c 2xf8
EndSplineSet
Validated: 1
EndChar

StartChar: Odieresis
Encoding: 214 214 39
Width: 273
Flags: W
HStem: 555 194<78.3208 189.725> 300 100<51.3563 220.497 -154.853 14.5918> 140 100<51.6537 219.879 -153.748 14.2947> -20 100<51.3899 220.331 -153.804 14.666>
VStem: -155 376<300.367 399.792 141.201 238.328 -18.9343 78.705> 15 36<400.684 557.878 241.855 298.706 81.0243 138.493>
LayerCount: 2
Fore
SplineSet
221 205 m 2xf8
 221 169 l 2xf8
 221 148 212.5 140 190 140 c 2
 85 140 l 2
 61 140 51 134.506 51 113 c 0xf4
 51 85.333 55.333 80 83 80 c 2
 186 80 l 2
 212.333 80 221 71 221 49 c 2
 221 10 l 2
 221 -10 212.333 -20 186 -20 c 2
 -123 -20 l 2
 -143.5 -20 -155 -12 -155 13 c 2
 -155 49 l 2xf8
 -155 64.5 -146.5 80 -123 80 c 2
 -16 80 l 2
 8.33301 80 15 86.333 15 110 c 2xf4
 15 615 l 2
 15 657 29.5 689.833 58.5 713.5 c 0
 87.5 737.167 122 749 162 749 c 0
 189.333 749 212.167 743 230.5 731 c 0
 248.833 719 258 701.333 258 678 c 0
 258 643.333 242.333 614.167 211 590.5 c 0
 179.667 566.833 144 555 104 555 c 0
 97.833 555 80.333 558 72 558 c 0
 58 558 51 551.333 51 538 c 2
 51 425.5 l 2xf4
 51 409.5 56.5 400 77.5 400 c 2
 196 400 l 2
 212.5 400 221 388.5 221 371.5 c 2
 221 322 l 2xf8
 221 306 211 300 196 300 c 2
 79 300 l 2
 61 300 51 291.027 51 272.5 c 3xf4
 51 241.396 61.9121 240 86 240 c 2
 181 240 l 2
 211 240 221 232 221 205 c 2xf8
EndSplineSet
Validated: 1
EndChar

StartChar: Adieresis
Encoding: 196 196 40
Width: 273
Flags: W
HStem: 555 194<78.3208 189.725> 300 100<-154.853 14.5918> 140 100<-153.748 14.2947> -20 100<51.3899 220.331 -153.804 14.666>
VStem: -155 206<300.367 399.844 141.123 238.861> 15 36<400.649 557.878 241.711 299.268 81.0243 138.493>
LayerCount: 2
Fore
SplineSet
51 113 m 2xf4
 51 85.333 55.333 80 83 80 c 2
 186 80 l 2
 212.333 80 221 71 221 49 c 2
 221 10 l 2
 221 -10 212.333 -20 186 -20 c 2
 -123 -20 l 2
 -143.5 -20 -155 -12 -155 13 c 2
 -155 49 l 2xf8
 -155 64.5 -146.5 80 -123 80 c 2
 -16 80 l 2
 8.33301 80 15 86.333 15 110 c 0xf4
 15 127.27 8.5 140 -14.5 140 c 2
 -121 140 l 2
 -143 140 -155 148.5 -155 174 c 2
 -155 210 l 2xf8
 -155 231 -144.5 240 -121 240 c 2
 -16 240 l 2
 5.5 240 15 250.5 15 270 c 3xf4
 15 290.006 10 300 -11 300 c 2
 -126.5 300 l 2
 -144 300 -155 306 -155 322 c 2
 -155 374.5 l 2xf8
 -155 391.5 -147 400 -129.5 400 c 2
 -12.5 400 l 2
 7 400 15 405.5 15 427 c 2
 15 615 l 2
 15 657 29.5 689.833 58.5 713.5 c 0
 87.5 737.167 122 749 162 749 c 0
 189.333 749 212.167 743 230.5 731 c 0
 248.833 719 258 701.333 258 678 c 0
 258 643.333 242.333 614.167 211 590.5 c 0
 179.667 566.833 144 555 104 555 c 0
 97.833 555 80.333 558 72 558 c 0
 58 558 51 551.333 51 538 c 2
 51 113 l 2xf4
EndSplineSet
Validated: 1
EndChar

StartChar: Udieresis
Encoding: 220 220 41
Width: 50
Flags: W
HStem: -20 100<-250 80> 140 100<-250 80>
LayerCount: 2
Fore
SplineSet
80 140 m 1
 -250 140 l 1
 -250 240 l 1
 80 240 l 1
 80 140 l 1
80 -20 m 1
 -250 -20 l 1
 -250 80 l 1
 80 80 l 1
 80 -20 l 1
EndSplineSet
Validated: 1
EndChar

StartChar: asterisk
Encoding: 42 42 42
Width: 357
Flags: W
HStem: 12 31<80 277> 164 31<80 277> 258 20G<163 194>
VStem: 163 31<81 278>
LayerCount: 2
Fore
SplineSet
80 43 m 0
 277 43 l 0
 277 12 l 0
 80 12 l 0
 80 43 l 0
194 278 m 0
 194 81 l 0
 163 81 l 0
 163 278 l 0
 194 278 l 0
80 195 m 0
 277 195 l 0
 277 164 l 0
 80 164 l 0
 80 195 l 0
EndSplineSet
Validated: 5
EndChar

StartChar: exclam
Encoding: 33 33 43
Width: 415
VWidth: 0
Flags: W
HStem: 80 108<89.2891 324.605> 159 29<40.0037 88.4858 325.514 374.996>
LayerCount: 2
Fore
SplineSet
353 188 m 6x40
 369 188 375 186 375 174 c 4
 375 163 371 159 353 159 c 6
 351 159 l 2x40
 329 159 325 150 325 139 c 2
 325 111 l 2
 325 82 317 80 291 80 c 2
 111 80 l 2x80
 95 80 89 89 89 108 c 2
 89 139 l 2
 89 150 85 159 63 159 c 2
 62 159 l 2
 44 159 40 163 40 174 c 0
 40 186 45 188 61 188 c 2
 353 188 l 6x40
EndSplineSet
Validated: 1
EndChar

StartChar: quotedbl
Encoding: 34 34 44
Width: 415
VWidth: 0
Flags: W
HStem: 38 108<89.2891 324.605> 38 29<40.0037 88.4858 325.514 374.996>
LayerCount: 2
Fore
SplineSet
353 38 m 2x40
 61 38 l 2
 45 38 40 40 40 52 c 0
 40 63 44 67 62 67 c 2
 63 67 l 2x40
 85 67 89 76 89 87 c 2
 89 118 l 2
 89 137 95 146 111 146 c 2
 291 146 l 2x80
 317 146 325 144 325 115 c 2
 325 87 l 2
 325 76 329 67 351 67 c 2
 353 67 l 2
 371 67 375 63 375 52 c 0
 375 40 369 38 353 38 c 2x40
EndSplineSet
Validated: 1
EndChar

StartChar: section
Encoding: 167 167 45
Width: 271
VWidth: 0
Flags: W
HStem: 531 20G<48 54>
VStem: 47 60<37.3109 120.5>
LayerCount: 2
Fore
SplineSet
51 551 m 3
 57 551 63 548 72 540 c 0
 86 528 103 509 114 498 c 0
 144 468 180 432 197 408 c 0
 210 390 206 377 193 357 c 0
 165 313 136 281 136 250 c 3
 136 197 231 109 231 85 c 3
 231 75 226 72 222 72 c 3
 202 72 193 101 158 101 c 3
 129 101 107 79 107 47 c 3
 107 25 126 2 126 -6 c 3
 126 -12 122 -16 117 -16 c 3
 98 -16 47 59 47 99 c 3
 47 142 64 171 98 171 c 3
 124 171 131 178 114 197 c 0
 84 229 66 248 56 261 c 0
 38 283 43 297 55 315 c 0
 74 345 111 385 111 420 c 3
 111 466 40 506 40 540 c 3
 40 546 45 551 51 551 c 3
EndSplineSet
Validated: 33
EndChar

StartChar: dollar
Encoding: 36 36 46
Width: 277
VWidth: 220
Flags: W
HStem: 251 33<85.5 164.468> 342 20G<222.5 231.5>
VStem: 40 95<285.172 354.264> 128 44<41.2273 123.453>
LayerCount: 2
Fore
SplineSet
88 362 m 3xe0
 113 362 135 348 135 316 c 3xe0
 135 298 120 284 138 284 c 3
 151 284 182 299 202 333 c 0
 210 348 216 362 229 362 c 3
 234 362 237 358 237 353 c 0
 237 349 236 345 235 341 c 0
 200 207 189 145 172 66 c 0
 167 44 164 41 142 41 c 3
 134 41 128 42 128 52 c 3xd0
 128 66 142 99 164 170 c 0
 172 195 182 234 188 258 c 0
 196 287 178 276 169 270 c 0
 155 261 134 251 102 251 c 3
 69 251 40 274 40 309 c 3
 40 338 57 362 88 362 c 3xe0
EndSplineSet
Validated: 33
EndChar

StartChar: percent
Encoding: 37 37 47
Width: 322
VWidth: 220
Flags: W
HStem: 251 34<85.5 165.749> 426 34<129.5 210.191> 517 20G<267.5 276.5>
VStem: 40 95<285.172 354.264> 85 95<460.172 529.8>
LayerCount: 2
Fore
SplineSet
172 66 m 0xe8
 167 44 164 41 142 41 c 3
 134 41 128 42 128 52 c 3
 128 66 141 99 163 170 c 0
 170 194 182 229 186 254 c 0
 190 273 187 281 166 268 c 0
 152 260 132 251 102 251 c 3
 69 251 40 274 40 309 c 3
 40 338 57 362 88 362 c 3
 113 362 135 348 135 316 c 3xf0
 135 297 119 285 139 285 c 3
 152 285 188 304 202 333 c 0
 212 354 223 400 231 430 c 0
 239 460 221 450 212 444 c 0
 198 435 177 426 146 426 c 3
 113 426 85 449 85 484 c 3
 85 513 101 537 132 537 c 3
 157 537 180 523 180 491 c 3
 180 471 168 460 184 460 c 3
 197 460 229 477 248 511 c 0
 256 526 261 537 274 537 c 3
 279 537 282 533 282 528 c 0
 282 524 280 520 279 516 c 0
 221 293 205 222 172 66 c 0xe8
EndSplineSet
Validated: 33
EndChar

StartChar: ampersand
Encoding: 38 38 48
Width: 366
VWidth: 220
Flags: W
HStem: 76 34<85.5 165.115> 251 34<129.5 210.903> 426 34<174.5 254.505> 517 20G<312.5 321.5>
VStem: 40 95<110.172 179.264> 85 95<285.172 354.8> 130 95<460.172 529.8>
LayerCount: 2
Fore
SplineSet
172 -109 m 0xf2
 167 -131 164 -134 142 -134 c 3
 134 -134 128 -133 128 -123 c 3
 128 -109 141 -76 163 -5 c 0
 170 19 180 54 186 78 c 0
 192 101 186 105 164 92 c 0
 151 84 131 76 102 76 c 3
 69 76 40 99 40 134 c 3
 40 163 57 187 88 187 c 3
 113 187 135 173 135 141 c 3xf8
 135 119 124 110 138 110 c 3
 149 110 185 125 200 154 c 0
 213 178 220 216 228 247 c 0
 234 271 233 280 206 265 c 0
 192 258 173 251 146 251 c 3
 113 251 85 274 85 309 c 3
 85 338 101 362 132 362 c 3
 157 362 180 348 180 316 c 3xf4
 180 294 167 285 183 285 c 3
 196 285 236 308 249 338 c 0
 263 371 268 401 275 431 c 0
 280 451 272 453 253 442 c 0
 239 434 220 426 191 426 c 3
 158 426 130 449 130 484 c 3
 130 513 146 537 177 537 c 3
 202 537 225 523 225 491 c 3
 225 469 215 460 228 460 c 3
 241 460 276 479 292 507 c 0
 304 527 306 537 319 537 c 3
 324 537 326 533 326 528 c 0
 326 524 325 520 324 516 c 0
 254 248 225 142 172 -109 c 0xf2
EndSplineSet
Validated: 1
EndChar

StartChar: uni0080
Encoding: 128 128 49
Width: 0
VWidth: 2472
Flags: W
HStem: 812 60<141 243> 881 24G<268 278> 1011 25G<134 153> 1109 24<174 241>
VStem: 50 76<834 910> 115 50<1026 1102> 250 55<1006 1107>
LayerCount: 2
Fore
SplineSet
84 1133 m 3xf6
 137 1133 174 1107 174 1055 c 0
 174 999 126 979 73 959 c 0
 45 948 25 938 8 926 c 0
 -2 919 -6 913 -6 908 c 0
 -6 897 10 901 34 891 c 0
 59 881 73 872 86 872 c 0
 99 872 109 880 122 896 c 0
 127 902 132 905 140 905 c 0
 151 905 151 895 146 888 c 0
 130 859 115 840 102 828 c 0
 89 816 74 812 60 812 c 0
 30 812 4 852 -27 852 c 0
 -35 852 -44 847 -51 839 c 0
 -58 831 -64 826 -69 826 c 2
 -74 826 l 2
 -80 826 -82 831 -82 838 c 0xfa
 -82 892 -39 937 46 977 c 0
 60 984 72 989 78 994 c 0
 106 1012 118 1037 118 1071 c 0
 118 1097 101 1109 75 1109 c 3
 51 1109 33 1098 33 1076 c 3
 33 1064 46 1059 46 1042 c 3
 46 1025 31 1011 13 1011 c 0
 -7 1011 -17 1021 -17 1043 c 0
 -17 1095 32 1133 84 1133 c 3xf6
EndSplineSet
Validated: 1
EndChar

StartChar: uni0081
Encoding: 129 129 50
Width: 0
VWidth: 2472
Flags: W
HStem: 810 25<-79 -20> 968 26<-48 2> 1109 24<-6 50>
VStem: -133 54<836 903> -56 48<1046 1108> 13 60<855 964> 13 32<946 960> 61 56<1010 1108>
LayerCount: 2
Fore
SplineSet
-95 921 m 0xfc
 -75 921 -61 906 -61 887 c 0
 -61 867 -79 863 -79 850 c 0
 -79 840 -75 836 -58 836 c 0
 -10 836 13 884 13 932 c 0xfc
 13 954 -5 968 -25 968 c 2
 -32 968 l 2
 -42 968 -48 972 -48 978 c 0
 -48 988 -45 994 -31 994 c 2
 -25 994 l 2
 29 994 61 1015 61 1070 c 0
 61 1095 47 1109 24 1109 c 0
 7 1109 -8 1104 -8 1090 c 0
 -8 1077 4 1074 4 1060 c 0
 4 1041 -12 1031 -28 1031 c 0
 -47 1031 -56 1044 -56 1062 c 0
 -56 1103 -15 1133 28 1133 c 2
 29 1133 l 2
 77 1133 118 1110 118 1062 c 0
 118 1027 97 1000 56 981 c 0
 49 977 46 974 46 970 c 0xfb
 46 966 47 963 52 958 c 0
 66 944 73 927 73 905 c 0
 73 897 71 886 65 874 c 0
 43 832 6 810 -48 810 c 0
 -65 810 -83 815 -100 822 c 0
 -123 833 -133 852 -133 880 c 0
 -133 904 -118 921 -95 921 c 0xfc
EndSplineSet
Validated: 1
EndChar

StartChar: uni0082
Encoding: 130 130 51
Width: 0
VWidth: 2472
Flags: W
HStem: 826 25<-38.9855 12.4951 79.6562 120.803> 911 29<-44.9963 25.0154 106.475 151.905>
VStem: -98 53<918 951.198>
LayerCount: 2
Fore
SplineSet
136 1047 m 2
 109 957 l 2
 108 953 106 950 106 948 c 0
 106 942 110 940 117 940 c 2
 139 940 l 2
 149 940 153 936 153 930 c 0
 153 929 152 923 152 922 c 0
 150 915 146 911 138 911 c 2
 110 911 l 2
 97 911 89 905 85 894 c 2
 79 870 l 2
 75 857 81 851 94 851 c 2
 106 851 l 2
 116 851 121 847 121 842 c 0
 121 831 117 826 104 826 c 2
 -33 826 l 2
 -38 826 -40 828 -40 833 c 0
 -40 841 -34 850 -20 851 c 0
 2 853 14 857 20 879 c 2
 25 897 l 2
 27 907 23 911 12 911 c 2
 -86 911 l 2
 -94 911 -98 915 -98 921 c 0
 -98 932 -93 936 -81 947 c 0
 -71 955 -63 966 -56 974 c 0
 -14 1026 15 1072 31 1116 c 0
 35 1127 42 1132 54 1132 c 2
 103 1132 l 2
 114 1132 117 1128 117 1121 c 0
 117 1113 103 1091 62 1049 c 0
 36 1023 6 996 -28 968 c 0
 -35 962 -45 955 -45 947 c 0
 -45 939 -40 940 -27 940 c 2
 16 940 l 2
 33 940 45 946 49 959 c 2
 56 987 l 2
 60 999 66 1009 74 1017 c 2
 116 1056 l 2
 129 1069 141 1065 136 1047 c 2
EndSplineSet
Validated: 1
EndChar

StartChar: uni0083
Encoding: 131 131 52
Width: 0
VWidth: 2472
Flags: W
HStem: 812 25<-75 -12> 982 29<-40 26> 1080 48<-36 93>
VStem: -125 49<837 905> 34 56<871 981>
LayerCount: 2
Fore
SplineSet
-85 923 m 0
 -65 923 -55 911 -55 891 c 0
 -55 867 -76 863 -76 850 c 0
 -76 842 -68 837 -49 837 c 0
 -24 837 -2 850 16 885 c 0
 28 908 34 928 34 942 c 0
 34 970 20 982 -5 982 c 2
 -6 982 l 2
 -23 982 -42 977 -60 964 c 0
 -68 958 -75 956 -83 956 c 0
 -96 956 -92 970 -90 978 c 2
 -43 1114 l 2
 -41 1121 -36 1128 -25 1128 c 0
 -19 1128 0 1122 13 1122 c 0
 41 1122 64 1123 83 1127 c 0
 111 1133 109 1122 95 1106 c 0
 76 1087 53 1077 28 1077 c 0
 4 1077 2 1080 -11 1080 c 0
 -23 1080 -30 1074 -34 1062 c 2
 -47 1025 l 2
 -48 1020 -49 1017 -49 1013 c 0
 -49 1006 -48 1002 -41 1002 c 0
 -27 1002 -15 1011 11 1011 c 0
 59 1011 90 981 90 934 c 0
 90 890 67 859 43 840 c 0
 18 821 -11 812 -43 812 c 0
 -92 812 -125 831 -125 879 c 0
 -125 904 -110 923 -85 923 c 0
EndSplineSet
Validated: 1
EndChar

StartChar: uni0084
Encoding: 132 132 53
Width: 0
VWidth: 2472
Flags: W
HStem: 812 26<-3 48> 978 19<31 61> 1108 24<52 96>
VStem: -63 56<838 993> 82 58<863 977 1036 1098> 97 50<1052 1108>
LayerCount: 2
Fore
SplineSet
111 1036 m 0xf4
 92 1036 79 1045 79 1064 c 0
 79 1087 98 1088 98 1098 c 0xf4
 98 1104 94 1108 84 1108 c 0
 50 1108 27 1070 14 1024 c 0
 12 1013 9 998 21 998 c 0
 45 998 42 1008 82 1008 c 0
 118 1008 141 979 141 942 c 0xf8
 141 922 135 902 124 880 c 0
 101 834 67 812 20 812 c 0
 -34 812 -62 848 -62 920 c 0
 -62 996 -21 1075 21 1107 c 0
 43 1124 65 1132 85 1132 c 0
 128 1132 148 1115 148 1080 c 0
 148 1057 133 1036 111 1036 c 0xf4
19 838 m 0
 60 838 84 896 84 940 c 0xf8
 84 965 74 978 54 978 c 0
 19 978 -5 912 -5 872 c 0
 -5 849 2 838 19 838 c 0
EndSplineSet
Validated: 1
EndChar

StartChar: uni0085
Encoding: 133 133 54
Width: 0
VWidth: 2472
Flags: W
HStem: 1013 25G<-116 -108> 1050 78<-47 43> 1074 59<-83 26> 1074 34<-66 -17>
VStem: -91 96<826 890>
LayerCount: 2
Fore
SplineSet
-90 851 m 0xc8
 -72 891 -37 936 12 988 c 0
 30 1006 40 1022 47 1034 c 0
 63 1058 52 1062 30 1054 c 0
 24 1052 18 1050 11 1050 c 0xc8
 1 1050 -8 1055 -19 1062 c 0
 -30 1070 -41 1074 -49 1074 c 0
 -63 1074 -71 1068 -83 1052 c 0
 -89 1045 -93 1034 -97 1026 c 0
 -101 1018 -107 1013 -114 1013 c 0
 -124 1013 -122 1024 -120 1034 c 0
 -116 1045 -112 1059 -106 1079 c 0
 -92 1121 l 0
 -90 1128 -86 1133 -80 1133 c 0xa8
 -74 1133 -68 1129 -67 1119 c 0
 -66 1113 -62 1108 -54 1108 c 0x98
 -46 1108 -39 1111 -31 1118 c 0
 -23 1125 -12 1128 0 1128 c 0
 12 1128 23 1124 31 1114 c 0
 39 1104 47 1101 55 1101 c 0
 67 1101 77 1107 85 1121 c 0
 90 1131 97 1132 103 1132 c 0
 108 1132 112 1130 112 1124 c 0
 112 1122 110 1118 110 1116 c 0
 103 1079 82 1033 48 978 c 0
 24 938 8 897 2 851 c 0
 0 834 -9 826 -22 826 c 0
 -78 826 l 0
 -89 826 -94 831 -94 838 c 0
 -94 842 -92 845 -90 851 c 0xc8
EndSplineSet
Validated: 1
EndChar

StartChar: uni0086
Encoding: 134 134 55
Width: 0
VWidth: 2472
Flags: W
HStem: 810 30<-39 66> 1103 29<28 115>
VStem: -100 37<858 933> -40 64<1022 1101> 72 65<844 923> 133 37<1013 1089>
LayerCount: 2
Fore
SplineSet
16 810 m 0xf8
 -38 810 -98 841 -98 896 c 0
 -98 926 -79 950 -41 970 c 0
 -29 976 -22 985 -22 995 c 0
 -22 1000 -25 1005 -27 1010 c 0
 -34 1024 -38 1038 -38 1050 c 0
 -38 1062 -35 1073 -30 1083 c 0
 -13 1115 18 1132 62 1132 c 0
 118 1132 172 1102 172 1050 c 0xf4
 172 1024 157 1001 128 983 c 0
 118 977 115 971 115 965 c 0
 115 959 116 954 120 948 c 0
 131 931 139 919 139 897 c 27
 139 838 78 810 16 810 c 0xf8
135 1050 m 0
 135 1086 104 1103 70 1103 c 0
 47 1103 26 1094 26 1074 c 0
 26 1066 28 1056 32 1049 c 0
 36 1042 41 1033 57 1016 c 0
 67 1005 78 1001 91 1001 c 0
 114 1001 135 1028 135 1050 c 0
-60 897 m 0
 -60 859 -22 840 19 840 c 0
 55 840 74 849 74 874 c 0xf8
 74 904 30 948 -2 948 c 0
 -30 948 -60 926 -60 897 c 0
EndSplineSet
Validated: 1
EndChar

StartChar: uni0087
Encoding: 135 135 56
Width: 0
VWidth: 2472
Flags: W
HStem: 812 28<-56 -17> 944 24<-40 16> 1106 28<-13 47>
VStem: -112 54<839 890> -102 55<969 1084>
LayerCount: 2
Fore
SplineSet
-52 878 m 0xf0
 -52 860 -60 859 -60 849 c 0xf0
 -60 842 -55 839 -47 839 c 0
 -24 839 -2 863 20 918 c 0
 24 929 24 944 12 944 c 0
 -4 944 -12 934 -43 934 c 0
 -57 934 -72 940 -85 951 c 0
 -98 962 -104 982 -104 1011 c 0xe8
 -104 1078 -50 1133 18 1133 c 0
 77 1133 107 1097 107 1024 c 0
 107 977 94 933 65 890 c 0
 39 852 -1 812 -50 812 c 0
 -85 812 -114 839 -114 870 c 0
 -114 892 -99 904 -79 904 c 0
 -65 904 -52 896 -52 878 c 0xf0
19 1106 m 0
 -4 1106 -20 1095 -36 1061 c 0
 -44 1042 -49 1023 -49 1004 c 0xe8
 -49 980 -39 968 -17 968 c 0
 9 968 29 988 43 1031 c 0
 53 1060 56 1106 19 1106 c 0
EndSplineSet
Validated: 33
EndChar

StartChar: uni0088
Encoding: 136 136 57
Width: 0
VWidth: 1222
Flags: W
HStem: -438 60<-91.7195 -10.3092> -141 24<-76.5161 -9.75002>
VStem: -200 76<-415.5 -339.5> -135 50<-222.736 -151.804> 0 56<-240.463 -144.537>
LayerCount: 2
Fore
SplineSet
-34 -117 m 3xd8
 19 -117 56 -143 56 -195 c 0
 56 -251 8 -271 -45 -291 c 0
 -73 -302 -93 -312 -110 -324 c 0
 -120 -331 -124 -337 -124 -342 c 0
 -124 -353 -108 -349 -84 -359 c 0
 -59 -369 -45 -378 -32 -378 c 0
 -19 -378 -9 -370 4 -354 c 0
 9 -348 14 -345 22 -345 c 0
 33 -345 33 -355 28 -362 c 0
 12 -391 -3 -410 -16 -422 c 0
 -29 -434 -44 -438 -58 -438 c 0
 -88 -438 -114 -398 -145 -398 c 0
 -153 -398 -162 -403 -169 -411 c 0
 -176 -419 -182 -424 -187 -424 c 2
 -192 -424 l 2
 -198 -424 -200 -419 -200 -412 c 0xe8
 -200 -358 -157 -313 -72 -273 c 0
 -58 -266 -46 -261 -40 -256 c 0
 -12 -238 0 -213 0 -179 c 0
 0 -153 -17 -141 -43 -141 c 3
 -67 -141 -85 -152 -85 -174 c 3
 -85 -186 -72 -191 -72 -208 c 3
 -72 -225 -87 -239 -105 -239 c 0
 -125 -239 -135 -229 -135 -207 c 0
 -135 -155 -86 -117 -34 -117 c 3xd8
EndSplineSet
Validated: 1
EndChar

StartChar: uni0089
Encoding: 137 137 58
Width: 0
VWidth: 1222
Flags: W
HStem: -440 26<-78.9465 -20.9579> -282 26<-47.8819 2.98877> -141 24<-5.11136 50.8576>
VStem: -133 54<-413.888 -348.168> -56 48<-203.879 -141.874> 13 60<-388.98 -291.129> 13 33<-304.569 -288.051> 61 57<-237.238 -144.01>
LayerCount: 2
Fore
SplineSet
-95 -329 m 0xfc
 -75 -329 -61 -344 -61 -363 c 0
 -61 -383 -79 -387 -79 -400 c 0
 -79 -410 -75 -414 -58 -414 c 0
 -10 -414 13 -366 13 -318 c 0xfc
 13 -296 -5 -282 -25 -282 c 2
 -32 -282 l 2
 -42 -282 -48 -278 -48 -272 c 0
 -48 -262 -45 -256 -31 -256 c 2
 -25 -256 l 2
 29 -256 61 -235 61 -180 c 0
 61 -155 47 -141 24 -141 c 0
 7 -141 -8 -146 -8 -160 c 0
 -8 -173 4 -176 4 -190 c 0
 4 -209 -12 -219 -28 -219 c 0
 -47 -219 -56 -206 -56 -188 c 0
 -56 -147 -15 -117 28 -117 c 2
 29 -117 l 2
 77 -117 118 -140 118 -188 c 0
 118 -223 97 -250 56 -269 c 0
 49 -273 46 -276 46 -280 c 0xfb
 46 -284 47 -287 52 -292 c 0
 66 -306 73 -323 73 -345 c 0
 73 -353 71 -364 65 -376 c 0
 43 -418 6 -440 -48 -440 c 0
 -65 -440 -83 -435 -100 -428 c 0
 -123 -417 -133 -398 -133 -370 c 0
 -133 -346 -118 -329 -95 -329 c 0xfc
EndSplineSet
Validated: 1
EndChar

StartChar: uni008A
Encoding: 138 138 59
Width: 0
VWidth: 1222
Flags: W
HStem: -424 25<-119.985 -68.5049 -1.34375 39.8027> -339 29<-125.996 -55.9846 25.4748 70.9048>
VStem: -179 53<-332 -298.802>
LayerCount: 2
Fore
SplineSet
55 -203 m 2
 28 -293 l 2
 27 -297 25 -300 25 -302 c 0
 25 -308 29 -310 36 -310 c 2
 58 -310 l 2
 68 -310 72 -314 72 -320 c 0
 72 -321 71 -327 71 -328 c 0
 69 -335 65 -339 57 -339 c 2
 29 -339 l 2
 16 -339 8 -345 4 -356 c 2
 -2 -380 l 2
 -6 -393 0 -399 13 -399 c 2
 25 -399 l 2
 35 -399 40 -403 40 -408 c 0
 40 -419 36 -424 23 -424 c 2
 -114 -424 l 2
 -119 -424 -121 -422 -121 -417 c 0
 -121 -409 -115 -400 -101 -399 c 0
 -79 -397 -67 -393 -61 -371 c 2
 -56 -353 l 2
 -54 -343 -58 -339 -69 -339 c 2
 -167 -339 l 2
 -175 -339 -179 -335 -179 -329 c 0
 -179 -318 -174 -314 -162 -303 c 0
 -152 -295 -144 -284 -137 -276 c 0
 -95 -224 -66 -178 -50 -134 c 0
 -46 -123 -39 -118 -27 -118 c 2
 22 -118 l 2
 33 -118 36 -122 36 -129 c 0
 36 -137 22 -159 -19 -201 c 0
 -45 -227 -75 -254 -109 -282 c 0
 -116 -288 -126 -295 -126 -303 c 0
 -126 -311 -121 -310 -108 -310 c 2
 -65 -310 l 2
 -48 -310 -36 -304 -32 -291 c 2
 -25 -263 l 2
 -21 -251 -15 -241 -7 -233 c 2
 35 -194 l 2
 48 -181 60 -185 55 -203 c 2
EndSplineSet
Validated: 1
EndChar

StartChar: uni008B
Encoding: 139 139 60
Width: 0
VWidth: 1222
Flags: W
HStem: -438 25<-75 -12> -268 29<-40 26> -170 48<-36 93>
VStem: -125 49<-413 -345> 34 56<-379 -269>
LayerCount: 2
Fore
SplineSet
-85 -327 m 0
 -65 -327 -55 -339 -55 -359 c 0
 -55 -383 -76 -387 -76 -400 c 0
 -76 -408 -68 -413 -49 -413 c 0
 -24 -413 -2 -400 16 -365 c 0
 28 -342 34 -322 34 -308 c 0
 34 -280 20 -268 -5 -268 c 2
 -6 -268 l 2
 -23 -268 -42 -273 -60 -286 c 0
 -68 -292 -75 -294 -83 -294 c 0
 -96 -294 -92 -280 -90 -272 c 2
 -43 -136 l 2
 -41 -129 -36 -122 -25 -122 c 0
 -19 -122 0 -128 13 -128 c 0
 41 -128 64 -127 83 -123 c 0
 111 -117 109 -128 95 -144 c 0
 76 -163 53 -173 28 -173 c 0
 4 -173 2 -170 -11 -170 c 0
 -23 -170 -30 -176 -34 -188 c 2
 -47 -225 l 2
 -48 -230 -49 -233 -49 -237 c 0
 -49 -244 -48 -248 -41 -248 c 0
 -27 -248 -15 -239 11 -239 c 0
 59 -239 90 -269 90 -316 c 0
 90 -360 67 -391 43 -410 c 0
 18 -429 -11 -438 -43 -438 c 0
 -92 -438 -125 -419 -125 -371 c 0
 -125 -346 -110 -327 -85 -327 c 0
EndSplineSet
Validated: 1
EndChar

StartChar: uni008C
Encoding: 140 140 61
Width: 0
VWidth: 1222
Flags: W
HStem: -438 26<-115 -64> -272 19<-81 -51> -142 24<-60 -16>
VStem: -175 56<-412 -257> -30 58<-387 -273 -214 -152> -15 50<-198 -142>
LayerCount: 2
Fore
SplineSet
-1 -214 m 0xf4
 -20 -214 -33 -205 -33 -186 c 0
 -33 -163 -14 -162 -14 -152 c 0xf4
 -14 -146 -18 -142 -28 -142 c 0
 -62 -142 -85 -180 -98 -226 c 0
 -100 -237 -103 -252 -91 -252 c 0
 -67 -252 -70 -242 -30 -242 c 0
 6 -242 29 -271 29 -308 c 0xf8
 29 -328 23 -348 12 -370 c 0
 -11 -416 -45 -438 -92 -438 c 0
 -146 -438 -174 -402 -174 -330 c 0
 -174 -254 -133 -175 -91 -143 c 0
 -69 -126 -47 -118 -27 -118 c 0
 16 -118 36 -135 36 -170 c 0
 36 -193 21 -214 -1 -214 c 0xf4
-93 -412 m 0
 -52 -412 -28 -354 -28 -310 c 0xf8
 -28 -285 -38 -272 -58 -272 c 0
 -93 -272 -117 -338 -117 -378 c 0
 -117 -401 -110 -412 -93 -412 c 0
EndSplineSet
Validated: 1
EndChar

StartChar: uni008D
Encoding: 141 141 62
Width: 0
VWidth: 1222
Flags: W
HStem: -237 25G<-116 -108> -200 78<-47 43> -176 59<-83 26> -176 34<-66 -17>
VStem: -91 96<-424 -360>
LayerCount: 2
Fore
SplineSet
-90 -399 m 0xc8
 -72 -359 -37 -314 12 -262 c 0
 30 -244 40 -228 47 -216 c 0
 63 -192 52 -188 30 -196 c 0
 24 -198 18 -200 11 -200 c 0xc8
 1 -200 -8 -195 -19 -188 c 0
 -30 -180 -41 -176 -49 -176 c 0
 -63 -176 -71 -182 -83 -198 c 0
 -89 -205 -93 -216 -97 -224 c 0
 -101 -232 -107 -237 -114 -237 c 0
 -124 -237 -122 -226 -120 -216 c 0
 -116 -205 -112 -191 -106 -171 c 0
 -92 -129 l 0
 -90 -122 -86 -117 -80 -117 c 0xa8
 -74 -117 -68 -121 -67 -131 c 0
 -66 -137 -62 -142 -54 -142 c 0x98
 -46 -142 -39 -139 -31 -132 c 0
 -23 -125 -12 -122 0 -122 c 0
 12 -122 23 -126 31 -136 c 0
 39 -146 47 -149 55 -149 c 0
 67 -149 77 -143 85 -129 c 0
 90 -119 97 -118 103 -118 c 0
 108 -118 112 -120 112 -126 c 0
 112 -128 110 -132 110 -134 c 0
 103 -171 82 -217 48 -272 c 0
 24 -312 8 -353 2 -399 c 0
 0 -416 -9 -424 -22 -424 c 0
 -78 -424 l 0
 -89 -424 -94 -419 -94 -412 c 0
 -94 -408 -92 -405 -90 -399 c 0xc8
EndSplineSet
Validated: 1
EndChar

StartChar: uni008E
Encoding: 142 142 63
Width: 0
VWidth: 1222
Flags: W
HStem: -440 30<-137 -32> -147 29<-70 17>
VStem: -198 37<-392 -317> -138 64<-228 -149> -26 65<-406 -327> 35 37<-237 -161>
LayerCount: 2
Fore
SplineSet
-82 -440 m 0xf8
 -136 -440 -196 -409 -196 -354 c 0
 -196 -324 -177 -300 -139 -280 c 0
 -127 -274 -120 -265 -120 -255 c 0
 -120 -250 -123 -245 -125 -240 c 0
 -132 -226 -136 -212 -136 -200 c 0
 -136 -188 -133 -177 -128 -167 c 0
 -111 -135 -80 -118 -36 -118 c 0
 20 -118 74 -148 74 -200 c 0xf4
 74 -226 59 -249 30 -267 c 0
 20 -273 17 -279 17 -285 c 0
 17 -291 18 -296 22 -302 c 0
 33 -319 41 -331 41 -353 c 27
 41 -412 -20 -440 -82 -440 c 0xf8
37 -200 m 0
 37 -164 6 -147 -28 -147 c 0
 -51 -147 -72 -156 -72 -176 c 0
 -72 -184 -70 -194 -66 -201 c 0
 -62 -208 -57 -217 -41 -234 c 0
 -31 -245 -20 -249 -7 -249 c 0
 16 -249 37 -222 37 -200 c 0
-158 -353 m 0
 -158 -391 -120 -410 -79 -410 c 0
 -43 -410 -24 -401 -24 -376 c 0xf8
 -24 -346 -68 -302 -100 -302 c 0
 -128 -302 -158 -324 -158 -353 c 0
EndSplineSet
Validated: 1
EndChar

StartChar: uni008F
Encoding: 143 143 64
Width: 0
VWidth: 1222
Flags: W
HStem: -438 28<-56 -17> -306 24<-40 16> -144 28<-13 47>
VStem: -112 54<-411 -360> -102 55<-281 -166>
LayerCount: 2
Fore
SplineSet
-52 -372 m 0xf0
 -52 -390 -60 -391 -60 -401 c 0xf0
 -60 -408 -55 -411 -47 -411 c 0
 -24 -411 -2 -387 20 -332 c 0
 24 -321 24 -306 12 -306 c 0
 -4 -306 -12 -316 -43 -316 c 0
 -57 -316 -72 -310 -85 -299 c 0
 -98 -288 -104 -268 -104 -239 c 0xe8
 -104 -172 -50 -117 18 -117 c 0
 77 -117 107 -153 107 -226 c 0
 107 -273 94 -317 65 -360 c 0
 39 -398 -1 -438 -50 -438 c 0
 -85 -438 -114 -411 -114 -380 c 0
 -114 -358 -99 -346 -79 -346 c 0
 -65 -346 -52 -354 -52 -372 c 0xf0
19 -144 m 0
 -4 -144 -20 -155 -36 -189 c 0
 -44 -208 -49 -227 -49 -246 c 0xe8
 -49 -270 -39 -282 -17 -282 c 0
 9 -282 29 -262 43 -219 c 0
 53 -190 56 -144 19 -144 c 0
EndSplineSet
Validated: 33
EndChar

StartChar: uni0090
Encoding: 144 144 65
Width: 0
Flags: W
HStem: 882 34<2.76857 167.231>
LayerCount: 2
Fore
SplineSet
85 882 m 0
 -30 882 -77 808 -93 808 c 0
 -98 808 -100 809 -100 816 c 0
 -100 834 -23 916 85 916 c 0
 193 916 270 834 270 816 c 0
 270 809 268 808 263 808 c 0
 247 808 200 882 85 882 c 0
EndSplineSet
Validated: 1
EndChar

StartChar: uni0091
Encoding: 145 145 66
Width: 0
Flags: W
HStem: 919 40<45.3267 280.418>
LayerCount: 2
Fore
SplineSet
163 959 m 0
 326.5 959 427 852.53 427 836 c 0
 427 830 424 828 418 828 c 0
 403 828 341.003 919 163 919 c 0
 -16.0029 919 -76 828 -91 828 c 0
 -97 828 -100 830 -100 836 c 0
 -100 852.53 -1.5 959 163 959 c 0
EndSplineSet
Validated: 1
EndChar

StartChar: uni0092
Encoding: 146 146 67
Width: 0
Flags: W
HStem: 919 40<45.3267 280.418>
LayerCount: 2
Fore
SplineSet
163 959 m 0
 326.5 959 427 852.53 427 836 c 0
 427 830 424 828 418 828 c 0
 403 828 341.003 919 163 919 c 0
 -16.0029 919 -76 828 -91 828 c 0
 -97 828 -100 830 -100 836 c 0
 -100 852.53 -1.5 959 163 959 c 0
EndSplineSet
Validated: 1
EndChar

StartChar: uni0093
Encoding: 147 147 68
Width: 0
Flags: W
HStem: -188 34<-47.2314 117.231>
LayerCount: 2
Fore
SplineSet
35 -154 m 0
 150 -154 197 -80 213 -80 c 0
 218 -80 220 -81 220 -88 c 0
 220 -106 143 -188 35 -188 c 0
 -73 -188 -150 -106 -150 -88 c 0
 -150 -81 -148 -80 -143 -80 c 0
 -127 -80 -80 -154 35 -154 c 0
EndSplineSet
Validated: 1
EndChar

StartChar: uni0094
Encoding: 148 148 69
Width: 0
Flags: W
HStem: -231 40<-3.41776 231.673>
LayerCount: 2
Fore
SplineSet
114 -231 m 0
 -49.5 -231 -150 -124.53 -150 -108 c 0
 -150 -102 -147 -100 -141 -100 c 0
 -126 -100 -64.0029 -191 114 -191 c 0
 293.003 -191 353 -100 368 -100 c 4
 374 -100 377 -102 377 -108 c 0
 377 -124.53 278.5 -231 114 -231 c 0
EndSplineSet
Validated: 1
EndChar

StartChar: uni0095
Encoding: 149 149 70
Width: 0
Flags: W
HStem: -302 58<91.0508 390.949>
LayerCount: 2
Fore
SplineSet
241 -244 m 0
 556 -244 596 -100 623 -100 c 0
 628 -100 632 -101 632 -112 c 0
 632 -150 473 -302 241 -302 c 0
 9 -302 -150 -150 -150 -112 c 0
 -150 -101 -146 -100 -141 -100 c 0
 -114 -100 -74 -244 241 -244 c 0
EndSplineSet
Validated: 1
EndChar

StartChar: uni009B
Encoding: 155 155 71
Width: 1000
LayerCount: 2
Back
SplineSet
48 362 m 7xe8
 73 362 95 348 95 316 c 7
 95 301 88 294 88 289 c 7
 88 282 90 281 98 281 c 7
 111 281 149 302 165 330 c 4xe4
 173 345 177 362 190 362 c 7
 195 362 197 358 197 353 c 4
 197 349 196 345 195 341 c 4
 160 207 149 145 132 66 c 4
 127 44 124 41 102 41 c 7
 94 41 88 42 88 52 c 7xd8
 88 66 103 99 125 170 c 4
 134 199 147 245 153 267 c 4
 154 271 154 273 154 275 c 4
 154 279 152 282 149 282 c 4
 145 282 140 278 136 275 c 4
 122 265 100 251 62 251 c 7
 29 251 0 274 0 309 c 7
 0 338 17 362 48 362 c 7xe8
EndSplineSet
EndChar

StartChar: comma
Encoding: 44 44 72
Width: 167
Flags: W
HStem: -90 14<41.5 55.8191> -3 76<43.745 97.5902>
VStem: 98 29<-38.0086 30.5>
LayerCount: 2
Fore
SplineSet
127 14 m 0
 127 -36 91 -78 43 -90 c 1
 40 -76 l 1
 76 -65 98 -35 98 -12 c 0
 98 -7 94 -3 88 -3 c 2
 78 -3 l 2
 57 -3 40 14 40 35 c 0
 40 56 57 73 78 73 c 0
 109 73 127 47 127 14 c 0
EndSplineSet
Validated: 1
EndChar

StartChar: greater
Encoding: 62 62 73
Width: 990
VWidth: -9
Flags: W
HStem: 92 26<140 702.25>
LayerCount: 2
Fore
SplineSet
855 105 m 0
 855 101 814 86 766 60 c 0
 717 32 684 6 680 8 c 0
 678 9 694 38 704 68 c 0
 706 74 700 92 686 92 c 2
 140 92 l 1
 140 118 l 1
 687 118 l 2
 699 118 706 135 704 143 c 0
 694 173 678 201 680 202 c 0
 684 204 717 178 766 150 c 0
 814 124 855 109 855 105 c 0
EndSplineSet
Validated: 33
EndChar

StartChar: less
Encoding: 60 60 74
Width: 990
VWidth: -9
Flags: W
HStem: 92 26<287.75 850>
LayerCount: 2
Fore
SplineSet
135 105 m 0
 135 109 176 124 224 150 c 0
 273 178 306 204 310 202 c 0
 312 201 296 173 286 143 c 0
 284 135 291 118 303 118 c 2
 850 118 l 1
 850 92 l 1
 304 92 l 2
 290 92 284 74 286 68 c 0
 296 38 312 9 310 8 c 0
 306 6 273 32 224 60 c 0
 176 86 135 101 135 105 c 0
EndSplineSet
Validated: 33
EndChar

StartChar: uni0096
Encoding: 150 150 76
Width: 0
VWidth: 0
Flags: W
HStem: 510 26<-78.9465 -20.9579> 601 20G<-106.5 -85> 668 26<-47.8819 2.98877> 731 21G<-37.5 -20> 809 24<-5.11136 50.8576> 903 36<-465.884 463.907>
VStem: -500 34<815.024 902.545> -133 54<536.112 601.832> -56 48<746.121 808.126> 13 60<561.02 658.871> 13 33<645.431 661.949> 61 57<712.762 805.99> 464 36<815.006 902.921>
LayerCount: 2
Fore
SplineSet
-95 621 m 0xffc8
 -75 621 -61 606 -61 587 c 0
 -61 567 -79 563 -79 550 c 0
 -79 540 -75 536 -58 536 c 0
 -10 536 13 584 13 632 c 0xffc8
 13 654 -5 668 -25 668 c 2
 -32 668 l 2
 -42 668 -48 672 -48 678 c 0
 -48 688 -45 694 -31 694 c 2
 -25 694 l 2
 29 694 61 715 61 770 c 0
 61 795 47 809 24 809 c 0
 7 809 -8 804 -8 790 c 0
 -8 777 4 774 4 760 c 0
 4 741 -12 731 -28 731 c 0
 -47 731 -56 744 -56 762 c 0
 -56 803 -15 833 28 833 c 2
 29 833 l 2
 77 833 118 810 118 762 c 0
 118 727 97 700 56 681 c 0
 49 677 46 674 46 670 c 0xffb8
 46 666 47 663 52 658 c 0
 66 644 73 627 73 605 c 0
 73 597 71 586 65 574 c 0
 43 532 6 510 -48 510 c 0
 -65 510 -83 515 -100 522 c 0
 -123 533 -133 552 -133 580 c 0
 -133 604 -118 621 -95 621 c 0xffc8
-474 939 m 2
 476 939 l 2
 490 939 500 933 500 917 c 2
 500 839 l 2
 500 821 492 815 482 815 c 0
 466 815 464 823 464 849 c 2
 464 879 l 2
 464 899 462 903 442 903 c 2
 -436 903 l 2
 -460 903 -466 901 -466 881 c 2
 -466 839 l 2
 -466 821 -470 815 -482 815 c 0
 -496 815 -500 823 -500 849 c 2
 -500 915 l 2
 -500 929 -494 939 -474 939 c 2
EndSplineSet
Validated: 1
EndChar

